<?xml version="1.0" encoding="UTF-8" standalone="no"?>
<svg
   width="54"
   height="64"
   version="1.1"
   viewBox="0 0 14.287219 16.933"
   id="svg33"
   sodipodi:docname="AppsIcon.svg"
   inkscape:version="1.4.3 (0d15f75042, 2025-12-25)"
   xmlns:inkscape="http://www.inkscape.org/namespaces/inkscape"
   xmlns:sodipodi="http://sodipodi.sourceforge.net/DTD/sodipodi-0.dtd"
   xmlns:xlink="http://www.w3.org/1999/xlink"
   xmlns="http://www.w3.org/2000/svg"
   xmlns:svg="http://www.w3.org/2000/svg">
  <sodipodi:namedview
     id="namedview33"
     pagecolor="#8d8d8d"
     bordercolor="#666666"
     borderopacity="1.0"
     inkscape:showpageshadow="2"
     inkscape:pageopacity="0.0"
     inkscape:pagecheckerboard="0"
     inkscape:deskcolor="#d1d1d1"
     inkscape:zoom="12.369028"
     inkscape:cx="42.323455"
     inkscape:cy="34.723828"
     inkscape:window-width="2560"
     inkscape:window-height="1374"
     inkscape:window-x="0"
     inkscape:window-y="0"
     inkscape:window-maximized="1"
     inkscape:current-layer="svg33" />
  <defs
     id="defs21">
    <linearGradient
       id="linearGradient25">
      <stop
         stop-color="#ffffff"
         stop-opacity="0"
         offset="0"
         id="stop1" />
      <stop
         stop-color="#ffffff"
         stop-opacity=".9"
         offset=".19055"
         id="stop2" />
      <stop
         stop-color="#ffffff"
         offset=".5"
         id="stop3" />
      <stop
         stop-color="#ffffff"
         stop-opacity=".9"
         offset=".74165"
         id="stop4" />
      <stop
         stop-color="#ffffff"
         stop-opacity="0"
         offset="1"
         id="stop5" />
    </linearGradient>
    <linearGradient
       id="linearGradient23">
      <stop
         stop-color="#59a4ff"
         stop-opacity="0"
         offset="0"
         id="stop6" />
      <stop
         stop-color="#3390ff"
         offset=".56883"
         id="stop7" />
      <stop
         stop-color="#59a4ff"
         stop-opacity="0"
         offset="1"
         id="stop8" />
    </linearGradient>
    <linearGradient
       id="linearGradient9">
      <stop
         stop-color="#bceeff"
         offset="0"
         id="stop9" />
      <stop
         stop-color="#94c6fa"
         offset="1"
         id="stop10" />
    </linearGradient>
    <filter
       id="filter8"
       x="-0.01199998"
       y="-0.01199998"
       width="1.024"
       height="1.024"
       color-interpolation-filters="sRGB">
      <feGaussianBlur
         stdDeviation="0.074081873"
         id="feGaussianBlur10" />
    </filter>
    <linearGradient
       id="linearGradient7"
       x1="6.7452002"
       x2="10.583"
       y1="1.0583"
       y2="11.312"
       gradientUnits="userSpaceOnUse"
       xlink:href="#linearGradient6" />
    <linearGradient
       id="linearGradient6">
      <stop
         stop-color="#ffffff"
         offset="0"
         id="stop11" />
      <stop
         stop-color="#ffffff"
         stop-opacity="0"
         offset="1"
         id="stop12" />
    </linearGradient>
    <linearGradient
       id="linearGradient8"
       x1="15.081"
       x2="12.7"
       y1="14.816"
       y2="12.171"
       gradientUnits="userSpaceOnUse"
       xlink:href="#linearGradient6" />
    <linearGradient
       id="linearGradient3"
       x1="8.4665003"
       x2="8.4665003"
       y1="1.0583"
       y2="15.875"
       gradientUnits="userSpaceOnUse">
      <stop
         stop-color="#22b4fa"
         offset="0"
         id="stop13" />
      <stop
         stop-color="#1b66f1"
         offset="1"
         id="stop14" />
    </linearGradient>
    <linearGradient
       id="linearGradient10"
       x1="7.4948001"
       x2="16.889999"
       y1="-4.4503999"
       y2="-4.3909998"
       gradientUnits="userSpaceOnUse"
       xlink:href="#linearGradient9" />
    <linearGradient
       id="linearGradient12"
       x1="-0.98225999"
       x2="8.3849001"
       y1="10.244"
       y2="10.251"
       gradientUnits="userSpaceOnUse">
      <stop
         stop-color="#d3f9ff"
         offset="0"
         id="stop15" />
      <stop
         stop-color="#94c6fa"
         offset="1"
         id="stop16" />
    </linearGradient>
    <linearGradient
       id="linearGradient14"
       x1="-3.7592001"
       x2="-13.185"
       y1="10.253"
       y2="10.22"
       gradientUnits="userSpaceOnUse"
       xlink:href="#linearGradient9" />
    <linearGradient
       id="linearGradient19"
       x1="12.151"
       x2="8.8884001"
       y1="9.1836004"
       y2="10.947"
       gradientUnits="userSpaceOnUse"
       xlink:href="#linearGradient23" />
    <linearGradient
       id="linearGradient20"
       x1="12.181"
       x2="9.1491003"
       y1="10.027"
       y2="11.474"
       gradientTransform="rotate(-120,8.4757,8.7672)"
       gradientUnits="userSpaceOnUse">
      <stop
         stop-color="#59a4ff"
         stop-opacity="0"
         offset="0"
         id="stop17" />
      <stop
         stop-color="#3390ff"
         offset=".5"
         id="stop18" />
      <stop
         stop-color="#59a4ff"
         stop-opacity="0"
         offset="1"
         id="stop19" />
    </linearGradient>
    <linearGradient
       id="linearGradient24"
       x1="12.151"
       x2="8.8884001"
       y1="9.1836004"
       y2="10.947"
       gradientTransform="rotate(-60,8.4768,14.576)"
       gradientUnits="userSpaceOnUse"
       xlink:href="#linearGradient23" />
    <linearGradient
       id="linearGradient26"
       x1="9.6056995"
       x2="9.7557001"
       y1="-5.2614002"
       y2="-3.6099"
       gradientUnits="userSpaceOnUse"
       xlink:href="#linearGradient25" />
    <filter
       id="filter30"
       x="-0.0031767483"
       y="-0.0039723143"
       width="1.0063535"
       height="1.0079446"
       color-interpolation-filters="sRGB">
      <feGaussianBlur
         stdDeviation="0.0037559755"
         id="feGaussianBlur19" />
    </filter>
    <linearGradient
       id="linearGradient31"
       x1="9.6056995"
       x2="9.6056995"
       y1="-5.2614002"
       y2="-3.5592"
       gradientUnits="userSpaceOnUse"
       xlink:href="#linearGradient25" />
    <linearGradient
       id="linearGradient35"
       x1="9.9099998"
       x2="9.9099998"
       y1="3.6738999"
       y2="13.018"
       gradientUnits="userSpaceOnUse">
      <stop
         stop-color="#bbf6ff"
         offset="0"
         id="stop20" />
      <stop
         stop-color="#bbf6ff"
         stop-opacity=".35"
         offset="1"
         id="stop21" />
    </linearGradient>
    <filter
       id="filter35"
       x="-0.015415895"
       y="-0.0098233437"
       width="1.0308318"
       height="1.0196466"
       color-interpolation-filters="sRGB">
      <feGaussianBlur
         stdDeviation="0.038245177"
         id="feGaussianBlur21" />
    </filter>
  </defs>
  <path
     d="M 7.1436103,1.9726805 C 3.5572493,1.9728649 0.64997537,4.8801389 0.64979091,8.4665001 0.64997537,12.052861 3.5572493,14.960135 7.1436103,14.96032 10.729971,14.960135 13.637244,12.052861 13.63743,8.4665001 13.637244,4.8801389 10.729971,1.9728649 7.1436103,1.9726805 Z m 0.00184,0.1626768 c 3.6918827,-5.24e-5 6.3311487,3.0458949 6.3311487,6.3311438 1.03e-4,3.4966369 -2.834508,6.3312469 -6.3311432,6.3311439 -3.5634893,5.98e-4 -6.33328783,-2.952 -6.33108703,-6.3311452 0.004041,-3.2404985 2.60687933,-6.3309444 6.33114313,-6.331143 z"
     style="fill:none;fill-opacity:1;stroke:#ffffff;stroke-width:0.264579;stroke-linecap:round;stroke-linejoin:round;stroke-dasharray:none;stroke-opacity:1"
     id="path13"
     sodipodi:nodetypes="ccccccccccc" />
  <path
     style="baseline-shift:baseline;display:inline;overflow:visible;opacity:1;stroke-width:1.00011;stroke-linecap:round;stroke-linejoin:round;stroke-miterlimit:30.4;stroke-dasharray:none;enable-background:accumulate;stop-color:#000000;stop-opacity:1;fill:#ffffff;fill-opacity:1"
     d="m 6.9199219,3.6425781 c -1.3471445,0 -2.1688099,0.1848278 -2.7246094,0.4453125 -0.5557995,0.2604848 -0.834245,0.6017855 -1.046875,0.8125 C 2.976642,5.0706384 2.4384985,5.4045884 1.96875,5.6621094 1.4990015,5.9196304 1.0859375,6.1210937 1.0859375,6.1210937 0.94789915,6.1875734 0.8949997,6.357031 0.97070313,6.4902344 c 0,0 0.12005997,0.2043121 0.36914057,0.4238281 C 1.5889244,7.1335785 1.97915,7.3872011 2.5449219,7.5449219 2.6918026,7.5860676 2.8429617,7.4948354 2.875,7.3457031 2.8893171,7.2769812 2.992252,7.0626557 3.140625,6.890625 3.288998,6.7185943 3.4815906,6.5799384 3.6445313,6.5429687 3.8531568,6.4956333 4.0058704,6.5050999 4.1972656,6.5273437 4.3886609,6.5495876 4.6161477,6.5880001 4.9101562,6.5742187 5.211721,6.5600829 5.4209391,6.4833503 5.6621094,6.4023437 5.9032797,6.3213372 6.1982452,6.2272238 6.7480469,6.140625 7.1825115,6.072193 7.8545463,6.1319446 8.4727078,6.4421019 8.7817885,6.5971806 9.0309782,6.9783372 9.34375,7.0742187 c 0.3127718,0.095882 0.6426636,0.1370173 0.953125,0.011719 0.503032,-0.2030171 0.789062,-0.5039062 0.789063,-0.5039063 0.04132,-0.044383 0.06614,-0.1016126 0.07031,-0.1621095 0.01476,-0.199307 -0.06018,-0.3364561 -0.152344,-0.5039063 C 10.911745,5.7485654 10.786336,5.5660482 10.642578,5.3789062 10.355063,5.0046223 9.9927145,4.6121152 9.6699219,4.3242187 8.9528133,3.6846348 7.8407781,3.6425781 6.9199219,3.6425781 Z m 0,0.5292969 c 0.8948724,0 1.8900235,0.093424 2.3984375,0.546875 0.289968,0.2586204 0.6391063,0.6371998 0.9042966,0.9824219 0.132596,0.172611 0.244259,0.3376623 0.316407,0.46875 0.04075,0.074048 0.03835,0.079779 0.05078,0.1191406 -0.05983,0.056627 -0.16212,0.1714771 -0.492187,0.3046875 C 9.946477,6.6547641 9.7515815,6.6454828 9.5,6.5683594 9.2484185,6.4912359 8.9551989,6.3492275 8.6484375,6.1953125 8.0349147,5.8874826 7.361847,5.5075877 6.6660156,5.6171875 6.0855212,5.7086207 5.7427439,5.8168875 5.4941406,5.9003906 5.2455374,5.9838938 5.1131564,6.0342161 4.8847656,6.0449219 4.6488184,6.0559817 4.4670328,6.0262686 4.2578125,6.0019531 4.0485922,5.9776376 3.8114114,5.9628912 3.5273438,6.0273437 3.1975913,6.1021615 2.9354076,6.3163642 2.7382813,6.5449219 2.623681,6.6777949 2.5856735,6.8127393 2.5175781,6.9472656 2.1612897,6.8163543 1.8521877,6.6609969 1.6894531,6.5175781 1.6364165,6.4708367 1.6540856,6.4766794 1.6191406,6.4394531 1.7805613,6.3585998 1.9015754,6.302973 2.2226563,6.1269531 2.7051123,5.8624657 3.233709,5.5605734 3.5214844,5.2753906 3.7684252,5.0306744 3.9594864,4.7821971 4.4199219,4.5664062 4.8803573,4.3506154 5.6210963,4.171875 6.9199219,4.171875 Z"
     id="path9"
     sodipodi:nodetypes="ssssccsccsssssssssccsssssssccssssssssscscssss" />
  <path
     style="baseline-shift:baseline;display:inline;overflow:visible;stroke-linecap:round;stroke-linejoin:round;stroke-miterlimit:30.4;enable-background:accumulate;stop-color:#000000;stop-opacity:1;opacity:1;stroke-width:1.00010532;stroke-dasharray:none;fill:#ffffff;fill-opacity:1"
     d="m 10.712891,6.2109375 c -0.07834,0.073038 -0.295936,0.2312966 -0.375,0.2675781 -6.85e-4,3.143e-4 -0.03859,0.021682 -0.04883,0.029297 -0.01024,0.00762 -0.01769,0.014337 -0.02344,0.019531 -0.0115,0.010389 -0.01839,0.017803 -0.02539,0.025391 -0.014,0.015175 -0.02605,0.028469 -0.03906,0.044922 -0.02601,0.032905 -0.05655,0.073823 -0.08984,0.1230469 -0.06659,0.098447 -0.14506,0.2295727 -0.220703,0.3808594 C 9.8329722,7.2168669 9.5073308,7.6162814 9.0644531,7.9648437 8.6215754,8.3134061 8.0511461,8.6422441 7.4746094,8.7675781 7.031032,8.8640081 6.5256942,9.1538263 6.0878906,9.4316406 5.8689889,9.5705478 5.6715144,9.7070086 5.5195312,9.8164063 5.3675481,9.9258039 5.278749,9.9905549 5.2167969,10.046875 5.148443,10.109015 5.0251865,10.23775 4.9179687,10.455078 4.810751,10.672406 4.7086853,10.982263 4.6308594,11.449219 c -0.1540772,0.924462 -0.090396,1.457967 -0.099609,1.734375 -0.013892,0.416776 0.1633215,0.884035 0.3769531,1.251953 0.1122274,0.19328 0.227389,0.310352 0.3339844,0.378906 0.053298,0.03428 0.1053482,0.05611 0.1484375,0.06836 0.043089,0.01225 0.099609,0.01563 0.099609,0.01563 a 0.26460459,0.26460459 0 0 0 0.1679687,-0.06055 c 0,0 0.3646962,-0.298291 0.9277344,-0.861328 0.3026052,-0.302605 0.9440654,-1.129539 1.6757813,-2.140625 0.7317158,-1.011087 1.5282526,-2.1835085 2.0605472,-3.1054692 0.204831,-0.354779 0.359944,-0.5131112 0.542968,-0.6230469 0.183025,-0.1099358 0.424835,-0.1761673 0.792969,-0.28125 0.406648,-0.1160762 0.785219,-0.1741435 1.070313,-0.2050782 0.142546,-0.015467 0.260608,-0.023696 0.349609,-0.029297 0.0445,-0.0028 0.08117,-0.0059 0.111328,-0.00781 0.03016,-0.00191 0.04164,0.00131 0.08984,-0.00781 a 0.26460459,0.26460459 0 0 0 0.144531,-0.4414063 c -0.3194,-0.3430663 -0.57644,-0.552084 -0.853515,-0.671875 -0.277076,-0.1197909 -0.550666,-0.1367187 -0.865235,-0.1367187 -0.09247,0 -0.234116,0.00373 -0.367187,-0.013672 -0.133072,-0.017402 -0.23422,-0.068585 -0.244141,-0.080078 a 0.26460459,0.26460459 0 0 0 -0.380859,-0.021484 z m 0.230468,0.4785156 c 0.112066,0.049301 0.219928,0.1325906 0.326172,0.1464844 0.187563,0.024528 0.362835,0.019531 0.435547,0.019531 0.29631,0 0.477881,0.01468 0.65625,0.091797 0.05406,0.023373 0.144888,0.126301 0.205078,0.1660156 -0.294941,0.035325 -0.649821,0.089511 -1.054687,0.2050782 -0.36208,0.1033544 -0.648575,0.1729499 -0.919922,0.3359375 -0.271347,0.1629876 -0.496389,0.4138286 -0.7265626,0.8125 -0.5147974,0.8916551 -1.306419,2.0570211 -2.03125,3.0585941 -0.7248311,1.001573 -1.4083137,1.861438 -1.6230469,2.076172 -0.4593047,0.459304 -0.6544133,0.615881 -0.7441406,0.691406 -0.030158,-0.02978 -0.050275,-0.03808 -0.099609,-0.123047 -0.1709066,-0.294336 -0.3141107,-0.744637 -0.3066406,-0.96875 0.012149,-0.36448 -0.053208,-0.794033 0.091797,-1.664063 0.071715,-0.43029 0.163069,-0.691243 0.2402344,-0.847656 0.077165,-0.156412 0.1305449,-0.205325 0.1796875,-0.25 -0.0032,0.0029 0.1114381,-0.08941 0.2558594,-0.193359 C 5.9725463,10.142139 6.1627451,10.011117 6.3710937,9.8789063 6.7877911,9.6144851 7.2924914,9.3469958 7.5859375,9.2832031 8.2766332,9.1330519 8.9032163,8.7644694 9.390625,8.3808594 c 0.4874087,-0.38361 0.827368,-0.7504413 0.972656,-1.0410157 0.06322,-0.1264324 0.133055,-0.2417722 0.1875,-0.3222656 0.02722,-0.040247 0.0516,-0.073071 0.06641,-0.091797 0.0029,-0.00364 0.0018,-0.00337 0.0039,-0.00586 -0.0033,0.00301 -0.0092,0.00747 -0.01758,0.013672 -0.0083,0.0062 -0.04561,0.025705 -0.04492,0.025391 0.147186,-0.067541 0.268755,-0.173104 0.384765,-0.2695313 z"
     id="path7" />
  <path
     d="M 6.9188214,5.8646429 C 6.847409,5.8636814 6.7767676,5.8681968 6.7074689,5.879112 6.2192504,5.9560109 5.9141539,6.0422789 5.6822287,6.1173357 5.681751,6.1175496 5.6811547,6.1176389 5.6806784,6.1178524 5.6137831,6.14784 5.5404221,6.1718292 5.4620914,6.1907148 5.2741634,6.2535023 5.1192768,6.2991863 4.8977959,6.3095682 4.3678401,6.3344094 4.0779335,6.172976 3.5852403,6.284764 3.0925472,6.3965514 2.6789473,6.9927842 2.616843,7.2908844 c -0.00625,-0.00174 -0.011365,-0.00392 -0.01757,-0.00568 C 2.599054,7.2851376 2.598976,7.2847459 2.5987566,7.2846833 1.7611056,7.0458932 1.3637969,6.5888515 1.2427937,6.4222206 L 0.99630201,7.1353414 c 0,0 1.38863719,1.0999361 1.68771909,1.4417441 0.299082,0.341808 1.3457809,1.3886134 1.4525959,1.8158745 0.106815,0.42726 -0.1925215,1.420771 -0.502285,2.147113 -0.3097634,0.726342 -0.2454583,1.153395 -0.2454583,1.153395 l 2.0401455,0.972015 c 0,0 -0.019233,-0.02867 -0.050642,-0.07855 C 5.3149184,14.544065 5.2298738,14.461689 5.1375698,14.302721 4.9453007,13.971594 4.7853141,13.512145 4.7959953,13.1917 c 0.010681,-0.320444 -0.053425,-0.801325 0.096116,-1.698571 0.1495409,-0.897246 0.3847885,-1.142696 0.502285,-1.249511 0.00427,-0.0039 0.01031,-0.009 0.01757,-0.01499 C 4.027457,9.4290436 3.1410782,8.2419854 3.2612355,7.2712477 3.3680356,6.4084214 5.5463223,6.7188375 5.5463223,6.7188375 c 0,0 0.6517743,-3.866e-4 0.7906339,0.2346064 0.1388596,0.234993 0.3523688,0.6731379 0.6728139,0.7906339 0.3204448,0.117497 0.9828032,0.106988 1.3352927,-0.021187 0.3524895,-0.12818 0.8436491,-0.2564579 1.057279,-0.3953169 0.2008125,-0.1305285 0.7344542,-0.2763419 0.9978522,-0.5544772 0.01737,-0.022561 0.03094,-0.03841 0.03979,-0.047025 -0.07253,0.039058 -0.153225,0.077713 -0.242358,0.1136859 C 9.3327185,7.1888242 8.0175847,5.8845945 6.9255392,5.8646429 c -8.668e-4,-2.34e-5 -0.00172,2.26e-5 -0.00258,0 -0.00139,-2.28e-5 -0.00275,1.87e-5 -0.00413,0 z M 1.3166896,6.2088012 1.2774163,6.3219703 c 0.018299,-0.0091 0.039606,-0.020018 0.063561,-0.032039 -0.019414,-0.050347 -0.024287,-0.08113 -0.024287,-0.08113 z m 6.2367059,0.00568 c 0.3196294,0.010796 0.627831,0.129732 0.8727977,0.3395074 0.020337,0.057312 0.032852,0.1171058 0.037206,0.1777635 0.027297,0.3724074 -0.2523628,0.696479 -0.6247557,0.7239725 -0.372595,0.027289 -0.6967493,-0.2526727 -0.7239726,-0.6252725 -0.01804,-0.2440691 0.097174,-0.478845 0.3012677,-0.6139039 0.045981,-0.00292 0.091795,-0.00361 0.1374566,-0.00207 z"
     style="opacity:1;stroke-width:0.264578;stroke-linecap:round;stroke-linejoin:round;stroke-miterlimit:30.4;stroke:none;stroke-opacity:1;fill:#ffffff;fill-opacity:1"
     id="path10" />
</svg>
